<svg width="25" height="24" viewBox="0 0 25 24" fill="none" xmlns="http://www.w3.org/2000/svg">
<path d="M2.5 7.75C2.5 7.75 3.28748 9.21247 4.80909 10.75M22 7.75C22 7.75 21.325 9.21247 19.9217 10.75M19.9217 10.75C18.8201 11.957 17.2696 13.2102 15.2446 13.8385M19.9217 10.75L22 12.75M15.2446 13.8385C14.4108 14.0972 13.4965 14.25 12.5 14.25C11.4158 14.25 10.415 14.0691 9.5 13.7678M15.2446 13.8385L16.5 16.25M9.5 13.7678C7.53159 13.1194 5.96025 11.9132 4.80909 10.75M9.5 13.7678L8.5 16.25M4.80909 10.75L3 12.75" stroke="white" stroke-width="2"/>
</svg>
