<svg width="31" height="32" viewBox="0 0 31 32" fill="none" xmlns="http://www.w3.org/2000/svg">
<path d="M7.06259 10.4489L4.91614 12.5953C2.91026 14.6012 2.91026 17.8533 4.91614 19.8592L7.06259 22.0057M7.06259 10.4489L11.7772 5.73422C13.7831 3.72835 17.0353 3.72835 19.0411 5.73422L23.7558 10.4489M7.06259 10.4489L9.79034 10.4489C10.1014 10.4489 10.4018 10.5618 10.6359 10.7666L14.5636 14.2033C15.0477 14.6269 15.7706 14.6269 16.2548 14.2033L20.1824 10.7666C20.4165 10.5618 20.717 10.4489 21.028 10.4489L23.7558 10.4489M23.7558 10.4489L25.9022 12.5953C27.9081 14.6012 27.9081 17.8533 25.9022 19.8592L23.7558 22.0057M7.06259 22.0057L11.7772 26.7203C13.7831 28.7262 17.0353 28.7262 19.0411 26.7203L23.7558 22.0057M7.06259 22.0057H9.90454C10.1452 22.0057 10.381 21.938 10.5851 21.8105L14.7286 19.2208C15.145 18.9606 15.6734 18.9606 16.0897 19.2208L20.2332 21.8105C20.4373 21.938 20.6732 22.0057 20.9138 22.0057H23.7558" stroke="white" stroke-width="2.56818"/>
</svg>
