<svg width="22" height="22" viewBox="0 0 22 22" fill="none" xmlns="http://www.w3.org/2000/svg">
<path d="M4.5 6.5L2.82843 8.17157C1.26633 9.73367 1.26633 12.2663 2.82843 13.8284L4.5 15.5M4.5 6.5L8.17157 2.82843C9.73367 1.26633 12.2663 1.26633 13.8284 2.82843L17.5 6.5M4.5 6.5L6.62426 6.5C6.86649 6.5 7.10048 6.58792 7.28277 6.74742L10.3415 9.42381C10.7185 9.75371 11.2815 9.75371 11.6585 9.42381L14.7172 6.74742C14.8995 6.58792 15.1335 6.5 15.3757 6.5L17.5 6.5M17.5 6.5L19.1716 8.17157C20.7337 9.73367 20.7337 12.2663 19.1716 13.8284L17.5 15.5M4.5 15.5L8.17157 19.1716C9.73367 20.7337 12.2663 20.7337 13.8284 19.1716L17.5 15.5M4.5 15.5H6.7132C6.90062 15.5 7.08427 15.4473 7.2432 15.348L10.47 13.3312C10.7943 13.1286 11.2057 13.1286 11.53 13.3312L14.7568 15.348C14.9157 15.4473 15.0994 15.5 15.2868 15.5H17.5" stroke="black" stroke-width="2"/>
</svg>
