<svg width="25" height="24" viewBox="0 0 25 24" fill="none" xmlns="http://www.w3.org/2000/svg">
<path d="M13.6108 15.6733H11.7783C11.7849 15.0926 11.8407 14.6177 11.9458 14.2486C12.0575 13.8736 12.2381 13.5318 12.4877 13.2232C12.7373 12.9147 13.069 12.5638 13.4828 12.1706C13.7849 11.8863 14.0608 11.6201 14.3103 11.3721C14.5665 11.118 14.7734 10.8457 14.931 10.5554C15.0887 10.2589 15.1675 9.90502 15.1675 9.49365C15.1675 9.07623 15.0854 8.71627 14.9212 8.41379C14.7635 8.11131 14.5271 7.8784 14.2118 7.71506C13.9031 7.55172 13.5189 7.47005 13.0591 7.47005C12.6782 7.47005 12.3169 7.53358 11.9754 7.66062C11.6338 7.78766 11.358 7.98427 11.1478 8.25045C10.9376 8.51059 10.8292 8.85239 10.8227 9.27586H9C9.01314 8.59226 9.19704 8.00544 9.55172 7.51543C9.91297 7.02541 10.399 6.65033 11.0099 6.3902C11.6207 6.13007 12.3038 6 13.0591 6C13.8933 6 14.6026 6.13914 15.1872 6.41742C15.7783 6.6957 16.2282 7.09498 16.5369 7.61524C16.8456 8.12946 17 8.74047 17 9.44828C17 9.99274 16.8785 10.4949 16.6355 10.9546C16.399 11.4083 16.0936 11.8348 15.7192 12.2341C15.3448 12.6334 14.9475 13.0145 14.5271 13.3775C14.1658 13.686 13.9228 14.0339 13.798 14.4211C13.6732 14.8082 13.6108 15.2257 13.6108 15.6733Z" fill="white"/>
<path d="M11.7921 16.6062V18H13.6108V16.6062H11.7921Z" fill="white"/>
<circle cx="13" cy="12" r="10" stroke="white" stroke-width="2"/>
</svg>
